<svg xmlns="http://www.w3.org/2000/svg" viewBox="0 0 500 500" width="500" height="500" class="illustration"><g id="Layer_10" data-name="Layer 10"><rect x="157.12" y="319.05" width="28.34" height="100.11" fill="#3fe2fd"></rect><rect x="291.93" y="294.54" width="23.74" height="61.28" fill="#3fe2fd"></rect><rect x="109.63" y="178.71" width="21.27" height="240.45" fill="#3fe2fd"></rect><rect x="120.26" y="96.56" width="15.41" height="68.95" fill="#3fe2fd"></rect><circle cx="235.84" cy="198.34" r="27.36" fill="#3fe2fd"></circle></g><g id="Layer_3" data-name="Layer 3"><path d="M401.45,427.05H104.14a6.89,6.89,0,0,1-6.9-6.89V196.21a6.9,6.9,0,0,1,13.79,0V413.27H394.56V196.21a6.89,6.89,0,1,1,13.78,0v224A6.88,6.88,0,0,1,401.45,427.05Z" fill="#251ac7"></path><path d="M455.54,253.43a6.84,6.84,0,0,1-4.76-1.91L258.38,68.1,49,249.79a6.89,6.89,0,1,1-9-10.41L254.08,53.57a6.89,6.89,0,0,1,9.27.22L460.29,241.54a6.9,6.9,0,0,1-4.75,11.89Z" fill="#251ac7"></path><path d="M255.8,229.85A32.17,32.17,0,1,1,288,197.68,32.2,32.2,0,0,1,255.8,229.85Zm0-50.55a18.38,18.38,0,1,0,18.38,18.38A18.4,18.4,0,0,0,255.8,179.3Z" fill="#251ac7"></path><path d="M242.18,427.05H158a6.89,6.89,0,0,1-6.89-6.89V318.88A6.89,6.89,0,0,1,158,312h84.19a6.89,6.89,0,0,1,6.9,6.89V420.16A6.89,6.89,0,0,1,242.18,427.05Zm-77.29-13.78h70.4v-87.5h-70.4Z" fill="#251ac7"></path><path d="M356.07,364.14H291a6.89,6.89,0,0,1-6.89-6.89V292.14a6.89,6.89,0,0,1,6.89-6.9h65.11a6.89,6.89,0,0,1,6.89,6.9v65.11A6.89,6.89,0,0,1,356.07,364.14Zm-58.22-13.79h51.33V299H297.85Z" fill="#251ac7"></path><path d="M122.28,179.3a6.9,6.9,0,0,1-6.9-6.9V92.13a6.9,6.9,0,0,1,6.9-6.89h45.05a6.9,6.9,0,0,1,6.9,6.89v40.14a6.9,6.9,0,0,1-13.79,0V99H129.17V172.4A6.9,6.9,0,0,1,122.28,179.3Z" fill="#251ac7"></path><path d="M455.54,427.05H44.46a6.89,6.89,0,1,1,0-13.78H455.54a6.89,6.89,0,0,1,0,13.78Z" fill="#251ac7"></path></g></svg>